<svg xmlns="http://www.w3.org/2000/svg" xmlns:xlink="http://www.w3.org/1999/xlink" version="1.1" id="Layer_1" x="0px" y="0px" width="88.107px" height="100px" viewBox="4.40535 -10.0 88.107 135.0" enable-background="new 0 0 88.107 100" xml:space="preserve">
<path d="M70.203,12.658c0.753,1.08,1.812,2.184,3.186,3.176c1.405,1.016,2.819,1.685,4.105,2.054l2.978-4.12  c1.649-0.369,2.697-1.572,3.71-2.975c2.413-3.339,2.323-7.522-0.227-9.364c-2.55-1.842-6.607-0.654-9.021,2.685  c-1.013,1.403-1.905,2.717-1.737,4.4L70.203,12.658z M82.643,3.274c1.729,1.25,1.807,4.1,0.17,6.365  c-0.301,0.417-0.646,0.766-1.005,1.081c0,0-1.23,0.427-3.616-1.297c-2.387-1.725-2.354-3.014-2.354-3.014  c0.187-0.441,0.408-0.879,0.709-1.295C78.183,2.847,80.912,2.023,82.643,3.274z"/>
<path d="M72.283,17.366c-1.306-0.944-2.417-1.974-3.288-3.035l-0.924,1.278c0.753,1.08,1.812,2.184,3.187,3.176  c1.302,0.94,2.612,1.581,3.819,1.964c0.114,0.006,0.228,0.012,0.341,0.015l0.865-1.195C74.975,19.072,73.616,18.33,72.283,17.366z"/>
<path d="M48.169,51.344c5.899,4.26,11.631,7.34,16.656,9.293c2.854-8.596,4.872-15.672,5.93-21.168  c0.611-3.168,0.556-6.258-0.8-9.075c-1.18-0.311-2.421-0.847-3.666-1.583c-0.501-0.258-1.005-0.561-1.505-0.922  c-0.439-0.317-0.84-0.655-1.204-0.999c-1.144-0.959-2.1-1.982-2.807-3.021c-3.038-0.345-5.94,0.56-8.701,2.104  c-4.853,2.712-11.009,6.808-18.212,12.166C37.313,42.384,42.12,46.974,48.169,51.344z"/>
<path d="M62.669,23.1c0.181,0.259,0.381,0.52,0.597,0.78c0.013,0.014,0.022,0.027,0.034,0.041c0.221,0.263,0.459,0.525,0.716,0.784  c0.013,0.014,0.029,0.028,0.041,0.042c0.225,0.225,0.469,0.447,0.72,0.667c0.064,0.056,0.129,0.112,0.195,0.169  c0.28,0.234,0.568,0.464,0.879,0.689c0.315,0.228,0.63,0.432,0.945,0.626c0.076,0.047,0.155,0.094,0.23,0.138  c0.302,0.178,0.602,0.345,0.899,0.492c0.009,0.005,0.019,0.011,0.027,0.016c0.324,0.159,0.643,0.298,0.958,0.422  c0.045,0.018,0.092,0.035,0.14,0.053c0.304,0.116,0.606,0.221,0.9,0.305c0.002,0.001,0.003,0.001,0.005,0.002l4.193-5.806  c-1.307-0.496-2.664-1.238-3.999-2.201c-1.305-0.943-2.414-1.974-3.288-3.036l-4.197,5.813C62.667,23.096,62.667,23.098,62.669,23.1  z"/>
<path d="M42.866,58.684c4.829,3.489,9.545,6.184,13.855,8.119c1.951,0.808,3.839,1.477,5.602,1.953  c0.553-1.591,1.096-3.183,1.633-4.769c-5.564-2.116-11.698-5.446-17.803-9.854c-6.22-4.494-11.394-9.374-15.172-14.076  c-1.362,1.029-2.728,2.064-4.089,3.109c0.457,0.691,0.963,1.397,1.5,2.109C31.856,49.577,36.72,54.244,42.866,58.684z"/>
<path d="M40.852,61.473c-7.161-5.173-12.93-10.854-16.785-16.191C13.034,53.079,2.98,60.753,1.001,62.269l0.081,0.05  c-0.046,0.084-0.057,0.477,0.479,1.176c0.538,0.7,1.021,0.848,1.205,0.877c0.929,0.156,1.724,0.66,2.494,1.586  c0.821,0.987,1.147,1.936,0.891,2.604l-0.021,0.057c-0.01,0.128,0.079,0.493,0.614,1.085c0.59,0.654,1.071,0.755,1.251,0.769  c0.913,0.066,1.734,0.502,2.585,1.373c0.903,0.923,1.321,1.857,1.148,2.563l-0.011,0.047c-0.001,0.133,0.114,0.513,0.695,1.063  c0.642,0.607,1.113,0.663,1.288,0.659c0.895-0.021,1.741,0.348,2.656,1.15c0.975,0.857,1.481,1.771,1.391,2.505l-0.009,0.066  c0.021,0.134,0.183,0.489,0.797,0.987c0.687,0.559,1.15,0.568,1.318,0.548c0.863-0.106,1.708,0.179,2.701,0.925  c1.004,0.753,1.591,1.603,1.623,2.344l0.003,0.098c-0.003,0.099,0.138,0.487,0.878,0.996c0.725,0.504,1.176,0.473,1.336,0.436  c0.828-0.191,1.692,0.029,2.721,0.687c1.099,0.7,1.769,1.55,1.847,2.325l0.006,0.061c0.042,0.13,0.268,0.473,0.96,0.877  c0.761,0.446,1.198,0.373,1.35,0.32c0.78-0.27,1.644-0.126,2.718,0.45c1.145,0.614,1.893,1.414,2.054,2.198l0.01,0.05  c0.057,0.138,0.318,0.483,1.035,0.834c0.795,0.387,1.21,0.27,1.353,0.201c0.729-0.349,1.586-0.282,2.694,0.207  c1.179,0.518,1.997,1.267,2.246,2.05l0.021,0.067c0.073,0.129,0.366,0.438,1.107,0.732c0.819,0.32,1.217,0.162,1.349,0.079  c0.668-0.42,1.51-0.432,2.648-0.036c0.891,0.309,1.601,0.766,2.048,1.295c1.201-3.476,4.979-14.524,8.607-26.417  C54.968,70.205,47.887,66.555,40.852,61.473z"/>
<text x="0.0" y="117.5" font-size="5.0" font-weight="bold" font-family="Helvetica Neue, Helvetica, Arial-Unicode, Arial, Sans-serif" fill="#000000">Created by Anna Weiss</text><text x="0.0" y="122.5" font-size="5.0" font-weight="bold" font-family="Helvetica Neue, Helvetica, Arial-Unicode, Arial, Sans-serif" fill="#000000">from the Noun Project</text></svg>