<?xml version="1.0" encoding="UTF-8" standalone="no"?>
<svg
   xmlns:dc="http://purl.org/dc/elements/1.1/"
   xmlns:cc="http://creativecommons.org/ns#"
   xmlns:rdf="http://www.w3.org/1999/02/22-rdf-syntax-ns#"
   xmlns:svg="http://www.w3.org/2000/svg"
   xmlns="http://www.w3.org/2000/svg"
   xmlns:sodipodi="http://sodipodi.sourceforge.net/DTD/sodipodi-0.dtd"
   xmlns:inkscape="http://www.inkscape.org/namespaces/inkscape"
   version="1.1"
   id="Layer_1"
   x="0px"
   y="0px"
   width="88"
   height="88"
   viewBox="4.40535 -10 87.999998 118.8"
   enable-background="new 0 0 88.107 100"
   xml:space="preserve"
   inkscape:version="0.91 r13725"
   sodipodi:docname="noun_12962_cc.svg"><metadata
     id="metadata23"><rdf:RDF><cc:Work
         rdf:about=""><dc:format>image/svg+xml</dc:format><dc:type
           rdf:resource="http://purl.org/dc/dcmitype/StillImage" /><dc:title></dc:title></cc:Work></rdf:RDF></metadata><defs
     id="defs21" /><sodipodi:namedview
     pagecolor="#ffffff"
     bordercolor="#666666"
     borderopacity="1"
     objecttolerance="10"
     gridtolerance="10"
     guidetolerance="10"
     inkscape:pageopacity="0"
     inkscape:pageshadow="2"
     inkscape:window-width="1600"
     inkscape:window-height="1137"
     id="namedview19"
     showgrid="false"
     inkscape:zoom="4.72"
     inkscape:cx="18.589151"
     inkscape:cy="42.377681"
     inkscape:window-x="-8"
     inkscape:window-y="-8"
     inkscape:window-maximized="1"
     inkscape:current-layer="Layer_1" /><g
     id="g3338"
     transform="translate(4.9390871,16.003664)"><path
       inkscape:connector-curvature="0"
       id="path3"
       d="m 70.203,-3.5420005 c 0.753,1.08 1.812,2.184 3.186,3.17599997 1.405,1.016 2.819,1.68500003 4.105,2.05400003 l 2.978,-4.12 c 1.649,-0.369 2.697,-1.572 3.71,-2.975 2.413,-3.339 2.323,-7.5220005 -0.227,-9.3640005 -2.55,-1.842 -6.607,-0.654 -9.021,2.685 -1.013,1.403 -1.905,2.7170005 -1.737,4.4000005 l -2.994,4.144 z m 12.44,-9.3840005 c 1.729,1.25 1.807,4.1000005 0.17,6.3650005 -0.301,0.417 -0.646,0.766 -1.005,1.081 0,0 -1.23,0.427 -3.616,-1.297 -2.387,-1.725 -2.354,-3.014 -2.354,-3.014 0.187,-0.4410005 0.408,-0.8790005 0.709,-1.2950005 1.636,-2.267 4.365,-3.091 6.096,-1.84 z" /><path
       inkscape:connector-curvature="0"
       id="path5"
       d="m 72.283,1.1659995 c -1.306,-0.94400003 -2.417,-1.97400003 -3.288,-3.035 l -0.924,1.27799997 c 0.753,1.08 1.812,2.18400003 3.187,3.17600003 1.302,0.94 2.612,1.581 3.819,1.964 0.114,0.006 0.228,0.012 0.341,0.015 l 0.865,-1.195 c -1.308,-0.497 -2.667,-1.239 -4,-2.203 z" /><path
       inkscape:connector-curvature="0"
       id="path7"
       d="m 48.169,35.143999 c 5.899,4.26 11.631,7.34 16.656,9.293 2.854,-8.596 4.872,-15.672 5.93,-21.168 0.611,-3.168 0.556,-6.258 -0.8,-9.075 -1.18,-0.311 -2.421,-0.847 -3.666,-1.583 -0.501,-0.258 -1.005,-0.561 -1.505,-0.922 -0.439,-0.317 -0.84,-0.655 -1.204,-0.999 -1.144,-0.9589995 -2.1,-1.9819995 -2.807,-3.0209995 -3.038,-0.345 -5.94,0.56 -8.701,2.104 -4.853,2.7119995 -11.009,6.8079995 -18.212,12.1659995 3.453,4.245 8.26,8.835 14.309,13.205 z" /><path
       inkscape:connector-curvature="0"
       id="path9"
       d="m 62.669,6.8999995 c 0.181,0.259 0.381,0.52 0.597,0.78 0.013,0.014 0.022,0.027 0.034,0.041 0.221,0.263 0.459,0.525 0.716,0.784 0.013,0.014 0.029,0.028 0.041,0.042 0.225,0.225 0.469,0.447 0.72,0.667 0.064,0.056 0.129,0.112 0.195,0.169 0.28,0.234 0.568,0.464 0.879,0.6889995 0.315,0.228 0.63,0.432 0.945,0.626 0.076,0.047 0.155,0.094 0.23,0.138 0.302,0.178 0.602,0.345 0.899,0.492 0.009,0.005 0.019,0.011 0.027,0.016 0.324,0.159 0.643,0.298 0.958,0.422 0.045,0.018 0.092,0.035 0.14,0.053 0.304,0.116 0.606,0.221 0.9,0.305 0.002,0.001 0.003,0.001 0.005,0.002 l 4.193,-5.8059995 c -1.307,-0.496 -2.664,-1.238 -3.999,-2.201 -1.305,-0.943 -2.414,-1.974 -3.288,-3.036 l -4.197,5.813 c 0.003,0 0.003,0.002 0.005,0.004 z" /><path
       inkscape:connector-curvature="0"
       id="path11"
       d="m 42.866,42.483999 c 4.829,3.489 9.545,6.184 13.855,8.119 1.951,0.808 3.839,1.477 5.602,1.953 0.553,-1.591 1.096,-3.183 1.633,-4.769 -5.564,-2.116 -11.698,-5.446 -17.803,-9.854 -6.22,-4.494 -11.394,-9.374 -15.172,-14.076 -1.362,1.029 -2.728,2.064 -4.089,3.109 0.457,0.691 0.963,1.397 1.5,2.109 3.464,4.302 8.328,8.969 14.474,13.409 z" /><path
       inkscape:connector-curvature="0"
       id="path13"
       d="m 40.852,45.272999 c -7.161,-5.173 -12.93,-10.854 -16.785,-16.191 -11.033,7.797 -21.087,15.471 -23.066,16.987 l 0.081,0.05 c -0.046,0.084 -0.057,0.477 0.479,1.176 0.538,0.7 1.021,0.848 1.205,0.877 0.929,0.156 1.724,0.66 2.494,1.586 0.821,0.987 1.147,1.936 0.891,2.604 l -0.021,0.057 c -0.01,0.128 0.079,0.493 0.614,1.085 0.59,0.654 1.071,0.755 1.251,0.769 0.913,0.066 1.734,0.502 2.585,1.373 0.903,0.923 1.321,1.857 1.148,2.563 l -0.011,0.047 c -0.001,0.133 0.114,0.513 0.695,1.063 0.642,0.607 1.113,0.663 1.288,0.659 0.895,-0.021 1.741,0.348 2.656,1.15 0.975,0.857 1.481,1.771 1.391,2.505 l -0.009,0.066 c 0.021,0.134 0.183,0.489 0.797,0.987 0.687,0.559 1.15,0.568 1.318,0.548 0.863,-0.106 1.708,0.179 2.701,0.925 1.004,0.753 1.591,1.603 1.623,2.344 l 0.003,0.098 c -0.003,0.099 0.138,0.487 0.878,0.996 0.725,0.504 1.176,0.473 1.336,0.436 0.828,-0.191 1.692,0.029 2.721,0.687 1.099,0.7 1.769,1.55 1.847,2.325 l 0.006,0.061 c 0.042,0.13 0.268,0.473 0.96,0.877 0.761,0.446 1.198,0.373 1.35,0.32 0.78,-0.27 1.644,-0.126 2.718,0.45 1.145,0.614 1.893,1.414 2.054,2.198 l 0.01,0.05 c 0.057,0.138 0.318,0.483 1.035,0.834 0.795,0.387 1.21,0.27 1.353,0.201 0.729,-0.349 1.586,-0.282 2.694,0.207 1.179,0.518 1.997,1.267 2.246,2.05 l 0.021,0.067 c 0.073,0.129 0.366,0.438 1.107,0.732 0.819,0.32 1.217,0.162 1.349,0.079 0.668,-0.42 1.51,-0.432 2.648,-0.036 0.891,0.309 1.601,0.766 2.048,1.295 1.201,-3.476 4.979,-14.524 8.607,-26.417 -6.2,-2.008 -13.281,-5.658 -20.316,-10.74 z" /></g></svg>